<svg width="100" height="60" viewBox="0 0 100 60" fill="none" xmlns="http://www.w3.org/2000/svg">
<path fill-rule="evenodd" clip-rule="evenodd" d="M69.4001 33.5039C69.4298 31.4143 69.4023 29.3037 69.4023 27.2117C69.4023 25.6879 69.0435 23.04 71.559 23.1418C73.935 23.238 73.612 25.759 73.612 27.2812C73.612 29.3607 73.591 31.4513 73.6141 33.5299L75.971 33.5262C75.9911 31.448 75.9727 29.3603 75.9727 27.2812C75.9727 25.7663 75.6417 23.1663 78.112 23.1384C80.5702 23.1108 80.1863 25.7472 80.1863 27.3507C80.1863 29.4035 80.1626 31.4708 80.1887 33.5288L82.6542 33.5227C82.6769 31.6553 82.6566 29.7749 82.6566 27.906C82.6566 26.0673 82.7995 24.394 81.9562 22.9933C80.6521 20.8267 76.7096 20.0157 74.819 23.1802C74.545 22.9362 74.362 22.3559 73.6435 21.8532C71.9345 20.6574 69.4137 21.1042 66.9336 21.1042L66.9357 33.5352L69.4001 33.5039Z" fill="white"/>
<path fill-rule="evenodd" clip-rule="evenodd" d="M32.1672 23.0202C34.5837 22.5666 35.7647 24.6103 35.8849 26.7922C35.9972 28.8249 35.6483 31.4096 33.268 31.8019C30.8489 32.2004 29.6415 30.2969 29.5428 28.0472C29.4343 25.5806 29.9882 23.4294 32.1672 23.0202ZM38.4049 28.0451C38.9309 21.5793 32.5108 19.1262 28.8333 22.5368C27.8759 23.4248 27.1792 24.9098 27.0307 26.7493C26.7257 30.5252 28.7183 33.4622 32.025 33.8097C34.175 34.0354 35.9639 33.1748 36.9855 31.9308C37.3587 31.4763 37.6033 31.0718 37.8522 30.5091C38.18 29.7677 38.3313 28.9513 38.4049 28.0451Z" fill="white"/>
<path fill-rule="evenodd" clip-rule="evenodd" d="M44.4149 23.187C47.6198 22.9535 49.5485 23.9327 49.6746 27.0724C49.806 30.3448 48.3051 31.6445 45.1611 31.6445L44.6785 31.6464L44.4153 31.6349L44.4149 23.187ZM42.0017 33.5185C44.055 33.6419 47.5585 33.7208 49.3185 32.7192C50.9778 31.7748 52.1981 30.0977 52.1956 27.4198C52.1916 23.2548 49.4165 21.5307 45.9885 21.3678C45.0018 21.3209 42.9485 21.2454 42 21.3627L42.0017 33.5185Z" fill="white"/>
<path fill-rule="evenodd" clip-rule="evenodd" d="M88.4175 23.2438L94.4657 23.244C94.4905 22.8217 94.5493 21.6549 94.4268 21.3439L86.7971 21.3437C86.4945 21.3423 86 21.2402 86 21.518L86.0009 33.507L94.6488 33.5238L94.688 31.5742L88.4366 31.5739L88.4331 28.1917L94.1685 28.1844L94.1683 26.3133L88.4235 26.3088L88.4175 23.2438Z" fill="white"/>
<path fill-rule="evenodd" clip-rule="evenodd" d="M57.4175 23.2394L63.4657 23.2396C63.4905 22.8173 63.5493 21.6505 63.4268 21.3395L55.7971 21.3393C55.4945 21.3379 55 21.2358 55 21.5136L55.0009 33.5026L63.6488 33.5194L63.688 31.5698L57.4366 31.5695L57.4331 28.1873L63.1685 28.18L63.1683 26.3089L57.4235 26.3044L57.4175 23.2394Z" fill="white"/>
<path d="M1.29742 0.0336914H59.3898V18.6881H56.9474V2.49407H2.51872V57.4706H56.9474V36.6548H59.3898V59.931H0.0761719V0.0336914H1.29742Z" fill="#FFCF10"/>
</svg>
