<svg width="25" height="25" viewBox="0 0 25 25" fill="none" xmlns="http://www.w3.org/2000/svg">
<path d="M2.18652 4.0918H8.18652C9.24739 4.0918 10.2648 4.51322 11.015 5.26337C11.7651 6.01352 12.1865 7.03093 12.1865 8.0918V22.0918C12.1865 21.2961 11.8705 20.5331 11.3078 19.9705C10.7452 19.4079 9.98217 19.0918 9.18652 19.0918H2.18652V4.0918Z" stroke="#5F4E0D" stroke-width="2" stroke-linecap="round" stroke-linejoin="round"/>
<path d="M22.1865 4.0918H16.1865C15.1257 4.0918 14.1082 4.51322 13.3581 5.26337C12.608 6.01352 12.1865 7.03093 12.1865 8.0918V22.0918C12.1865 21.2961 12.5026 20.5331 13.0652 19.9705C13.6278 19.4079 14.3909 19.0918 15.1865 19.0918H22.1865V4.0918Z" stroke="#5F4E0D" stroke-width="2" stroke-linecap="round" stroke-linejoin="round"/>
</svg>
