<svg width="32" height="32" viewBox="0 0 32 32" fill="none" xmlns="http://www.w3.org/2000/svg">
<g clip-path="url(#clip0_39_1361)">
<path d="M31.7736 17.3437L30.3411 15.2476C29.9164 11.5795 28.8676 8.86498 27.1486 6.97274C25.1364 4.75747 22.2605 3.68066 18.3567 3.68066C17.8066 3.68066 17.2268 3.70262 16.6333 3.74608C9.98085 4.23245 6.41897 11.8948 5.00903 15.8776C4.93871 15.9077 4.86828 15.9382 4.79774 15.9692C1.56579 17.3892 -0.0036716 18.9702 -0.000116043 20.8022C0.00124343 21.4934 0.407466 22.2317 1.31685 23.1961C1.9775 23.8966 2.8791 24.6779 3.85531 25.396C5.00401 26.2411 7.93724 28.2169 10.36 28.3128C10.4682 28.3171 10.5842 28.3191 10.7048 28.3191C10.705 28.3191 10.7047 28.3191 10.7049 28.3191C14.5191 28.3191 26.5921 26.0697 31.7586 18.829C32.0747 18.3862 32.0807 17.7929 31.7736 17.3437ZM25.273 18.8665C24.9655 19.0734 24.6506 19.2691 24.3312 19.4571C23.6346 19.8669 22.9158 20.2381 22.1817 20.5757C20.7847 21.2181 19.3236 21.7447 17.8228 22.0852C16.4572 22.395 15.0034 22.5852 13.6113 22.3455C12.2723 22.115 10.9549 21.6581 9.75889 21.0133C8.56867 20.3716 7.34864 19.5651 6.48422 18.5071C7.0242 18.7446 7.56867 18.97 8.11847 19.1837C8.47162 17.9674 8.88056 16.7619 9.37233 15.5942C9.85071 14.4584 10.4109 13.3665 11.2255 12.4342C12.1846 11.3362 13.3741 10.4196 14.628 9.68333C15.682 9.06446 16.81 8.57818 18.0072 8.32025C17.5324 8.49583 17.0735 8.70273 16.6312 8.94974C15.3108 9.6873 14.1233 10.6807 13.1212 11.8104C12.6809 12.3067 12.2163 12.8515 11.9082 13.4432C11.5674 14.0978 11.3473 14.801 11.1664 15.5146C10.8103 16.9315 10.6008 18.3888 10.4638 19.8423C10.4495 19.994 10.4551 19.9805 10.6052 20.0213C10.7002 20.0472 10.7952 20.0731 10.8903 20.0989C11.0621 20.1494 11.2363 20.1913 11.4104 20.2331C11.7715 20.3198 12.1345 20.3954 12.4984 20.47C14.685 20.9379 17.5966 20.4009 19.399 20.0001C21.2205 19.5952 23.0283 19.1305 24.8459 18.7085C24.8449 18.7086 24.861 18.7048 24.9033 18.695C25.1739 18.6337 25.113 18.6477 25.0132 18.6706C25.2675 18.6134 25.5222 18.5575 25.7779 18.5071C25.7778 18.5837 25.3289 18.8288 25.273 18.8665Z" fill="#FFCF10"/>
</g>
<defs>
<clipPath id="clip0_39_1361">
<rect width="32" height="32" fill="white"/>
</clipPath>
</defs>
</svg>
