<svg width="32" height="32" viewBox="0 0 32 32" fill="none" xmlns="http://www.w3.org/2000/svg">
<path d="M25.9899 27.7468C25.3018 27.7468 24.7411 27.1861 24.7411 26.4981V25.2493H25.9899C27.9803 25.2493 28.4873 24.5725 28.4873 24.5725V26.4981C28.4873 27.1861 27.9266 27.7468 27.2386 27.7468H25.9899Z" fill="#FFCF10"/>
<path d="M4.7614 27.7468C4.07335 27.7468 3.51266 27.1861 3.51266 26.4981V24.5725C3.51266 24.5725 4.01965 25.2493 6.01013 25.2493H7.25886V26.4981C7.25886 27.1861 6.69818 27.7468 6.01013 27.7468H4.7614Z" fill="#FFCF10"/>
<path d="M32 14.6351C32 13.0405 30.7063 11.7468 29.1117 11.7468C27.8729 11.7468 26.824 12.531 26.4144 13.6274L25.0446 16.6956C24.9422 16.6319 20.8001 15.3307 16.0774 15.3307C11.3547 15.3307 7.04909 16.6381 6.9442 16.703L5.64676 13.8247C5.29587 12.6284 4.19948 11.7481 2.88832 11.7481C1.29369 11.7481 0 13.0405 0 14.6364C0 15.9638 0.901584 17.0702 2.1216 17.4086L2.65605 22.0027C3.22048 23.9519 6.01015 24.0006 6.01015 24.0006H25.9899C25.9899 24.0006 28.7795 23.9519 29.3439 22.0002L29.8784 17.4061C31.0972 17.0689 32 15.9625 32 14.6351Z" fill="#FFCF10"/>
<path d="M2.88832 10.2483C4.7764 10.2483 6.47093 11.4946 7.05159 13.2927L7.68345 14.6976C8.90596 14.2568 13.3015 13.8322 16.0787 13.8322C18.7797 13.8322 23.1128 14.2268 24.3116 14.6639L25.0296 13.0542C25.6802 11.3734 27.3148 10.2483 29.1129 10.2483C29.2453 10.2483 29.3714 10.2758 29.5025 10.287C29.5025 10.2796 29.5038 10.2708 29.5038 10.2633C29.5038 6.94419 26.814 4.25317 23.4936 4.25317C23.0766 4.25317 8.92594 4.25317 8.50886 4.25317C5.18974 4.25317 2.49872 6.94294 2.49872 10.2633C2.49872 10.2708 2.49997 10.2796 2.49997 10.287C2.62984 10.2771 2.75596 10.2483 2.88832 10.2483Z" fill="#FFCF10"/>
</svg>
