<svg width="72" height="72" viewBox="0 0 72 72" fill="none" xmlns="http://www.w3.org/2000/svg">
<path d="M47.5594 24.3562C47.3062 24.1031 46.9969 23.9344 46.6312 23.85L40.4437 22.95L37.6875 17.3812C37.4344 16.9594 37.0406 16.65 36.5906 16.4812C36.0844 16.3125 35.55 16.3687 35.0718 16.6219C34.7625 16.7906 34.4812 17.0437 34.2844 17.3531L31.5281 22.95L25.4812 23.8219L25.3687 23.85C24.7218 23.9906 24.3843 24.4125 24.2718 24.525L24.1593 24.6656C23.8781 25.0875 23.7656 25.5937 23.85 26.1C23.9062 26.4656 24.075 26.8031 24.3843 27.1687L28.7719 31.4437L27.7312 37.575C27.7031 37.8844 27.7312 38.3906 28.0687 38.8969L28.1812 39.0375C28.6031 39.5156 29.1094 39.6844 29.3625 39.7125C29.475 39.7406 29.5875 39.7406 29.6718 39.7406C29.9531 39.7406 30.2343 39.6844 30.5437 39.5156L35.9437 36.675L41.4281 39.5719C41.8781 39.7687 42.3844 39.7969 42.8344 39.6281C43.3406 39.4594 43.7625 39.0937 44.0156 38.5875C44.1562 38.2781 44.2125 37.9125 44.1844 37.4625L43.1437 31.4437L47.5875 27.1125C47.925 26.7469 48.0937 26.2687 48.0937 25.7906V25.65C48.0937 25.0594 47.8687 24.6375 47.5594 24.3562ZM40.2187 30.4594L41.2312 36.2812L36 33.525L30.7687 36.2812L31.7531 30.4594L27.5343 26.325L33.3843 25.4812L36 20.1937L38.6156 25.4812L44.4656 26.325L40.2187 30.4594Z" fill="black"/>
<path d="M67.7531 10.2656H59.5687V5.11873C59.5687 3.7406 58.4437 2.6156 57.0656 2.6156H14.9344C13.5562 2.6156 12.4312 3.7406 12.4312 5.11873V10.2656H4.24685C2.33435 10.2656 0.787476 11.8125 0.787476 13.725V20.8687C0.787476 28.3218 6.13123 34.6218 13.3312 35.9437C14.2594 39.6 15.9469 42.9187 18.3094 45.5906C21.2344 48.9093 25.0031 51.3 29.25 52.5656L24.9187 61.9031H24.8906C23.4844 61.9031 22.3594 63.0281 22.3594 64.4625V69.4125H49.6125V64.4625C49.6125 63.0562 48.4875 61.9312 47.0812 61.9312L42.7219 52.5937C46.9687 51.3281 50.7375 48.9375 53.6625 45.6187C56.025 42.9468 57.7125 39.6281 58.6406 35.9718C65.8687 34.65 71.1844 28.35 71.1844 20.8968V13.725C71.2125 11.8125 69.6656 10.2656 67.7531 10.2656ZM3.57185 20.8687V13.725C3.57185 13.3312 3.88123 13.0218 4.27498 13.0218H12.4594V28.2375C12.4594 29.8125 12.5719 31.3875 12.7969 32.9625C7.39685 31.4718 3.57185 26.5781 3.57185 20.8687ZM56.2781 33.8625C55.575 37.6593 53.9719 41.0625 51.6094 43.7343C48.9094 46.8 45.3375 48.9937 41.3437 50.0625L38.8125 50.7093L45.3094 64.6875H46.8562V66.6281H25.1437V64.6875H26.6906L33.1875 50.7093L30.6844 50.0625C26.6906 48.9937 23.1187 46.8 20.4187 43.7343C18.0562 41.0625 16.4531 37.6312 15.75 33.8625C15.4125 32.0343 15.2156 30.1218 15.2156 28.2375V5.37185H56.7844V28.2375C56.7844 30.15 56.6156 32.0343 56.2781 33.8625ZM68.4281 20.8687C68.4281 26.5781 64.575 31.4718 59.2312 32.9625C59.4562 31.4156 59.5687 29.8406 59.5687 28.2375V13.0218H67.7531C68.1469 13.0218 68.4562 13.3312 68.4562 13.725V20.8687H68.4281Z" fill="black"/>
</svg>
