<?xml version="1.0" standalone="no"?>
<!DOCTYPE svg PUBLIC "-//W3C//DTD SVG 20010904//EN"
 "http://www.w3.org/TR/2001/REC-SVG-20010904/DTD/svg10.dtd">
<svg version="1.0" xmlns="http://www.w3.org/2000/svg"
 width="245.000000pt" height="245.000000pt" viewBox="0 0 245.000000 245.000000"
 preserveAspectRatio="xMidYMid meet">
<metadata>
Created by potrace 1.14, written by Peter Selinger 2001-2017
</metadata>
<g transform="translate(0.000000,245.000000) scale(0.100000,-0.100000)"
fill="#000000" stroke="none">
<path d="M1071 2369 c-63 -19 -107 -57 -404 -350 l-298 -294 1 -46 c0 -49 22
-83 66 -99 55 -21 73 -7 370 291 192 192 299 292 320 299 25 9 40 8 66 -3 19
-9 194 -176 426 -409 l392 -394 0 -292 0 -292 106 0 106 0 -4 297 -3 298 -33
70 c-31 65 -60 96 -445 477 -274 271 -427 414 -457 429 -51 26 -153 35 -209
18z"/>
<path d="M972 1235 c-55 -24 -98 -63 -128 -117 -28 -50 -29 -60 -32 -195 l-4
-143 100 0 100 0 4 120 c2 94 6 123 18 130 23 15 343 13 358 -2 8 -8 12 -52
12 -130 l0 -118 106 0 107 0 -5 138 c-6 152 -18 195 -71 251 -18 18 -54 44
-82 57 -47 23 -60 24 -250 24 -150 -1 -208 -4 -233 -15z"/>
<path d="M600 547 c-13 -7 -30 -24 -38 -37 -17 -33 -9 -98 16 -122 38 -38 155
-36 192 4 20 22 27 87 14 123 -16 40 -129 60 -184 32z m118 -46 c8 -5 12 -22
10 -42 -4 -40 -40 -59 -85 -43 -35 12 -45 61 -17 81 20 15 72 17 92 4z"/>
<path d="M864 547 c-3 -8 -4 -52 -2 -98 l3 -84 55 -3 c115 -7 160 20 160 94 0
56 -7 72 -41 89 -37 20 -168 21 -175 2z m140 -43 c10 -4 16 -18 16 -40 0 -38
-21 -54 -69 -54 -30 0 -31 1 -31 50 l0 50 34 0 c19 0 41 -3 50 -6z"/>
<path d="M1152 463 l3 -98 98 -3 97 -3 0 26 c0 24 -2 25 -64 25 -36 0 -68 5
-71 10 -4 6 15 10 49 10 53 0 56 1 56 24 0 23 -4 25 -52 28 -30 2 -53 8 -56
16 -3 9 15 12 67 12 69 0 71 1 71 25 l0 25 -100 0 -101 0 3 -97z"/>
<path d="M1420 459 l0 -100 28 3 c24 3 27 7 32 51 l5 49 23 -31 c29 -39 40
-39 74 1 l27 33 1 -52 c0 -52 1 -53 30 -53 l30 0 0 100 0 100 -30 0 c-23 0
-35 -9 -60 -45 -17 -25 -34 -45 -38 -45 -4 0 -20 20 -35 45 -23 37 -34 45 -58
45 l-29 0 0 -101z"/>
<path d="M1742 463 l3 -98 98 -3 97 -3 0 26 c0 24 -2 25 -64 25 -36 0 -68 5
-71 10 -4 6 15 10 49 10 53 0 56 1 56 24 0 23 -4 25 -52 28 -30 2 -53 8 -56
16 -3 9 15 12 67 12 69 0 71 1 71 25 l0 25 -100 0 -101 0 3 -97z"/>
<path d="M852 179 c5 -14 777 -17 780 -3 2 5 -164 10 -390 12 -283 1 -393 -1
-390 -9z"/>
</g>
</svg>
