<svg width="128" height="128" viewBox="0 0 128 128" fill="none" xmlns="http://www.w3.org/2000/svg">
<g clip-path="url(#clip0_56_834)">
<path d="M15.2546 23.3853C12.6156 23.3853 10.1845 24.383 8.5528 26.1053C6.92106 27.8276 6.10064 30.1488 6.10064 32.5154V95.9737H3.06521C1.37065 95.964 -0.00645284 97.3384 2.27445e-05 99.033V107.175C2.27445e-05 113.875 5.49513 119.37 12.1953 119.37H115.805C122.505 119.37 128 113.875 128 107.175V99.033C128.006 97.35 126.647 95.9805 124.965 95.9737H121.905V32.5154C121.905 27.5034 117.781 23.3853 112.769 23.3853H106.675C104.992 23.3786 103.622 24.7377 103.615 26.4207C103.622 28.1037 104.992 29.4627 106.675 29.4561H112.769C114.51 29.4561 115.805 30.7745 115.805 32.5154V95.9737H12.1953V32.5154C12.1953 31.5058 12.5252 30.7704 12.981 30.2894C13.4367 29.8084 14.054 29.4561 15.2546 29.4561H21.3492C23.0229 29.4497 24.3781 28.0944 24.3847 26.4207C24.3783 24.747 23.0229 23.3918 21.3492 23.3853H15.2546ZM6.10064 102.068C46.278 102.068 87.4568 102.068 121.905 102.068V107.175C121.905 110.604 119.234 113.276 115.805 113.276H12.1953C8.76617 113.276 6.10064 110.604 6.10064 107.175V102.068Z" fill="#FFCF10"/>
<path d="M42.4286 81.2634C42.0283 81.2648 41.6322 81.345 41.2629 81.4995C40.8936 81.6541 40.5584 81.8798 40.2764 82.1639C39.9944 82.448 39.7711 82.7849 39.6193 83.1553C39.4675 83.5258 39.3902 83.9225 39.3918 84.3228C39.3946 85.1273 39.7154 85.8982 40.2843 86.4671C40.8532 87.036 41.6241 87.3568 42.4286 87.3596H85.5742C86.3788 87.3568 87.1496 87.036 87.7185 86.4671C88.2875 85.8982 88.6083 85.1273 88.6111 84.3228C88.6126 83.9225 88.5353 83.5258 88.3835 83.1553C88.2318 82.7849 88.0085 82.448 87.7265 82.1639C87.4445 81.8798 87.1092 81.6541 86.7399 81.4995C86.3706 81.345 85.9745 81.2648 85.5742 81.2634H42.4286Z" fill="#FFCF10"/>
<path d="M62.6727 8.40468L31.2471 23.6532C28.9103 24.7997 28.9933 28.1589 31.384 29.1884L39.9963 32.8428V57.5548C40.0006 58.6418 40.5834 59.6441 41.5259 60.1855L62.4704 72.3332C63.4163 72.8821 64.5837 72.8821 65.5296 72.3332L86.4979 60.1855C87.4313 59.6381 88.0044 58.6369 88.0037 57.5548V32.8548L96.6398 29.1884C99.0305 28.1589 99.1135 24.7997 96.7767 23.6532L65.3273 8.40466C64.2753 7.846 63.754 7.88457 62.6727 8.40468ZM64 14.541L88.093 26.1947C80.0571 29.5858 72.0367 32.9969 64 36.408C55.9767 33.0029 47.9535 29.5944 39.9308 26.1945L64 14.541ZM46.0969 35.4438L60.9646 41.7468V53.7754C60.9579 55.4584 62.317 56.8281 64 56.8347C65.6923 56.8414 67.0659 55.4677 67.0592 53.7754V41.7349L81.909 35.4438V55.799L64 66.1909L46.0969 55.799V35.4438Z" fill="#FFCF10"/>
</g>
<defs>
<clipPath id="clip0_56_834">
<rect width="128" height="128" fill="white"/>
</clipPath>
</defs>
</svg>
